<svg preserveAspectRatio="none" width="100%" height="100%" overflow="visible" style="display: block;" viewBox="0 0 39.4034 39.4029" fill="none" xmlns="http://www.w3.org/2000/svg">
<g id="Logo Button">
<g clip-path="url(#clip0_492_169)">
<g id="Vector">
<path d="M-0.00516036 25.4092L-0.00516098 39.6917H19.4688L19.4688 25.4092L-0.00516036 25.4092Z" fill="var(--fill-0, #0058A1)"/>
<path d="M-0.743291 22.7131L22.4935 22.7131C22.4935 22.7131 22.4534 24.8186 22.4366 26.8779C22.4212 28.7689 22.0991 30.5207 23.8001 30.6908C25.5011 30.8609 22.4606 31.6476 22.4606 31.6476L22.4223 32.5279L24.0298 33.9823C21.81 33.9057 22.3962 36.5062 22.4935 38.3601L-0.743291 38.3601L-0.743291 22.7131Z" fill="var(--fill-0, #0058A1)"/>
<path d="M24.5916 -0.0223919L38.8741 -0.0223912L38.8741 21.1553L24.5916 21.1553L24.5916 -0.0223919Z" fill="var(--fill-0, #0058A1)"/>
<path d="M23.2481 35.9995C23.2481 35.4017 23.7327 34.917 24.3306 34.917H26.0626C26.6604 34.917 27.1451 35.4017 27.1451 35.9995L27.1451 38.5587L23.2481 38.5587V35.9995Z" fill="var(--fill-0, #0058A1)"/>
<path d="M28.0456 35.8474C28.0456 35.2496 28.5303 34.7649 29.1281 34.7649H30.7505C31.3484 34.7649 31.833 35.2496 31.833 35.8474L31.833 38.4065L28.0456 38.4065L28.0456 35.8474Z" fill="var(--fill-0, #0058A1)"/>
<path d="M32.5736 35.8596C32.5736 35.2617 33.0583 34.7771 33.6561 34.7771L36.5483 34.7771V38.3933L32.5736 38.3933L32.5736 35.8596Z" fill="var(--fill-0, #0058A1)"/>
<path d="M23.4377 0.435301L27.3347 0.435301L27.3347 27.825C27.3347 29.0207 26.3654 29.9901 25.1697 29.9901L24.5202 29.9901C23.9224 29.9901 23.4377 29.5054 23.4377 28.9075L23.4377 0.435301Z" fill="var(--fill-0, #0058A1)"/>
<path d="M16.7296 33.984L16.7296 30.7354H38.9826V33.984L16.7296 33.984Z" fill="var(--fill-0, #0058A1)"/>
<path d="M28.3391 25.5825L28.3391 22.1722L39.323 22.1722L39.323 25.5825L28.3391 25.5825Z" fill="var(--fill-0, #0058A1)"/>
<path d="M28.3389 29.869L28.3389 26.4586H39.3228V29.869L28.3389 29.869Z" fill="var(--fill-0, #0058A1)"/>
<path d="M27.227 29.9453C27.8218 29.4949 28.1886 28.8058 28.23 28.0609L28.3178 26.4797L30.9203 29.8476L27.227 29.9453Z" fill="var(--fill-0, #0058A1)"/>
<path d="M9.45767 9.45779H16.8187V16.8189H9.45767V9.45779Z" fill="var(--fill-0, #0058A1)"/>
</g>
</g>
<rect x="0.595347" y="0.595347" width="38.2127" height="38.2122" rx="11.3116" stroke="var(--stroke-0, #0058A1)" stroke-width="1.19069"/>
</g>
<defs>
<clipPath id="clip0_492_169">
<rect width="39.4034" height="39.4029" rx="11.9069" fill="white"/>
</clipPath>
</defs>
</svg>
