<svg preserveAspectRatio="none" width="100%" height="100%" overflow="visible" style="display: block;" viewBox="0 0 1121 2801" fill="none" xmlns="http://www.w3.org/2000/svg">
<g id="Group 4 700" clip-path="url(#clip0_905_1403)">
<path id="Vector" d="M591.824 476.198C581.859 478.568 580.371 480.488 578.537 493.359C576.702 480.488 575.215 478.568 565.25 476.198C575.215 473.829 576.702 471.908 578.537 459.038C580.371 471.908 581.859 473.829 591.824 476.198Z" fill="var(--fill-0, white)"/>
<path id="Vector_2" d="M380.736 1413.34C370.771 1415.71 369.283 1417.63 367.449 1430.5C365.614 1417.63 364.127 1415.71 354.162 1413.34C364.127 1410.97 365.614 1409.05 367.449 1396.18C369.283 1409.05 370.771 1410.97 380.736 1413.34Z" fill="var(--fill-0, white)"/>
<path id="Vector_3" d="M148.074 2195.72C141.105 2197.37 140.065 2198.72 138.781 2207.72C137.498 2198.72 136.458 2197.37 129.489 2195.72C136.458 2194.06 137.498 2192.72 138.781 2183.71C140.065 2192.72 141.105 2194.06 148.074 2195.72Z" fill="var(--fill-0, white)"/>
<path id="Vector_4" d="M731.482 938.93C721.517 941.3 720.03 943.22 718.195 956.091C716.361 943.22 714.873 941.3 704.908 938.93C714.873 936.561 716.361 934.64 718.195 921.77C720.03 934.64 721.517 936.561 731.482 938.93Z" fill="var(--fill-0, white)"/>
<path id="Vector_5" d="M524.925 1939.75C517.816 1941.44 516.755 1942.81 515.446 1951.99C514.137 1942.81 513.076 1941.44 505.967 1939.75C513.076 1938.06 514.137 1936.69 515.446 1927.51C516.755 1936.69 517.816 1938.06 524.925 1939.75Z" fill="var(--fill-0, white)"/>
<path id="Vector_6" d="M92.2114 1109.61C82.2462 1111.98 80.7591 1113.9 78.9246 1126.77C77.09 1113.9 75.6029 1111.98 65.6377 1109.61C75.6029 1107.24 77.09 1105.32 78.9246 1092.45C80.7591 1105.32 82.2462 1107.24 92.2114 1109.61Z" fill="var(--fill-0, white)"/>
<path id="Vector_7" d="M336.496 2783.1C326.531 2785.47 325.044 2787.39 323.209 2800.26C321.375 2787.39 319.888 2785.47 309.922 2783.1C319.888 2780.73 321.375 2778.81 323.209 2765.94C325.044 2778.81 326.531 2780.73 336.496 2783.1Z" fill="var(--fill-0, white)"/>
<path id="Vector_8" d="M1067.66 1672.75C1057.7 1675.12 1056.21 1677.04 1054.38 1689.91C1052.54 1677.04 1051.06 1675.12 1041.09 1672.75C1051.06 1670.38 1052.54 1668.46 1054.38 1655.59C1056.21 1668.46 1057.7 1670.38 1067.66 1672.75Z" fill="var(--fill-0, white)"/>
<path id="Vector_9" d="M1094.34 129.555C1084.37 131.925 1082.89 133.846 1081.05 146.716C1079.22 133.846 1077.73 131.925 1067.77 129.555C1077.73 127.186 1079.22 125.265 1081.05 112.395C1082.89 125.265 1084.37 127.186 1094.34 129.555Z" fill="var(--fill-0, white)"/>
<path id="Vector_10" d="M978.185 2473.68C968.22 2476.05 966.733 2477.97 964.898 2490.84C963.064 2477.97 961.577 2476.05 951.611 2473.68C961.577 2471.31 963.064 2469.39 964.898 2456.52C966.733 2469.39 968.22 2471.31 978.185 2473.68Z" fill="var(--fill-0, white)"/>
<path id="Vector_11" d="M1120.91 921.77C1110.95 924.139 1109.46 926.06 1107.63 938.93C1105.79 926.06 1104.31 924.139 1094.34 921.77C1104.31 919.4 1105.79 917.48 1107.63 904.609C1109.46 917.48 1110.95 919.4 1120.91 921.77Z" fill="var(--fill-0, white)"/>
<path id="Vector_12" d="M439.28 104.767C434.85 105.82 434.189 106.674 433.374 112.395C432.558 106.674 431.897 105.82 427.467 104.767C431.897 103.713 432.558 102.86 433.374 97.1384C434.189 102.86 434.85 103.713 439.28 104.767Z" fill="var(--fill-0, white)"/>
<path id="Vector_13" d="M872.21 256.603C865.88 250.97 864.284 250.97 857.954 256.603C862.316 248.428 862.316 246.367 857.954 238.191C864.284 243.825 865.88 243.825 872.21 238.191C867.848 246.367 867.848 248.428 872.21 256.603Z" fill="var(--fill-0, white)"/>
<path id="Vector_14" d="M160.331 1683.2C154 1677.57 152.405 1677.57 146.075 1683.2C150.437 1675.03 150.437 1672.97 146.075 1664.79C152.405 1670.43 154 1670.43 160.331 1664.79C155.969 1672.97 155.969 1675.03 160.331 1683.2Z" fill="var(--fill-0, white)"/>
<path id="Vector_15" d="M220.174 586.512C213.844 580.878 212.248 580.878 205.918 586.512C210.28 578.336 210.28 576.275 205.918 568.1C212.248 573.733 213.844 573.733 220.174 568.1C215.812 576.275 215.812 578.336 220.174 586.512Z" fill="var(--fill-0, white)"/>
<path id="Vector_16" d="M173.915 1212.33C167.584 1206.7 165.989 1206.7 159.659 1212.33C164.021 1204.15 164.021 1202.09 159.659 1193.92C165.989 1199.55 167.584 1199.55 173.915 1193.92C169.553 1202.09 169.553 1204.15 173.915 1212.33Z" fill="var(--fill-0, white)"/>
<path id="Vector_17" d="M521.605 2270.44C515.275 2264.81 513.679 2264.81 507.349 2270.44C511.711 2262.27 511.711 2260.2 507.349 2252.03C513.679 2257.66 515.275 2257.66 521.605 2252.03C517.243 2260.2 517.243 2262.27 521.605 2270.44Z" fill="var(--fill-0, white)"/>
<path id="Vector_18" d="M970.412 14.7397C969.625 9.2123 968.986 8.38742 964.706 7.36987C968.986 6.35231 969.625 5.52744 970.412 -3.22147e-07C971.2 5.52744 971.839 6.35231 976.119 7.36987C971.839 8.38742 971.2 9.2123 970.412 14.7397Z" fill="var(--fill-0, white)"/>
<path id="Vector_19" d="M1019.51 1210.49C1018.72 1204.97 1018.08 1204.14 1013.8 1203.12C1018.08 1202.11 1018.72 1201.28 1019.51 1195.75C1020.29 1201.28 1020.93 1202.11 1025.21 1203.12C1020.93 1204.14 1020.29 1204.97 1019.51 1210.49Z" fill="var(--fill-0, white)"/>
<path id="Vector_20" d="M78.1985 1582.97C77.4107 1577.44 76.772 1576.61 72.4923 1575.6C76.772 1574.58 77.4107 1573.75 78.1985 1568.23C78.9864 1573.75 79.6251 1574.58 83.9048 1575.6C79.6251 1576.61 78.9864 1577.44 78.1985 1582.97Z" fill="var(--fill-0, white)"/>
<path id="Vector_21" d="M89.5782 40.5601C83.2481 34.9266 81.6525 34.9266 75.3223 40.5601C79.6842 32.3844 79.6842 30.3236 75.3223 22.1479C81.6525 27.7815 83.2481 27.7815 89.5782 22.1479C85.2164 30.3236 85.2164 32.3844 89.5782 40.5601Z" fill="var(--fill-0, white)"/>
<path id="Vector_22" d="M1093.22 1301.68C1086.89 1296.04 1085.29 1296.04 1078.96 1301.68C1083.32 1293.5 1083.32 1291.44 1078.96 1283.27C1085.29 1288.9 1086.89 1288.9 1093.22 1283.27C1088.85 1291.44 1088.85 1293.5 1093.22 1301.68Z" fill="var(--fill-0, white)"/>
<path id="Vector_23" d="M60.5327 222.24C51.5021 224.387 50.1544 226.127 48.4919 237.791C46.8295 226.127 45.4818 224.387 36.4512 222.24C45.4818 220.093 46.8295 218.352 48.4919 206.689C50.1544 218.352 51.5021 220.093 60.5327 222.24Z" fill="var(--fill-0, white)"/>
<path id="Vector_24" d="M189.57 172.321C185.14 173.374 184.479 174.228 183.664 179.949C182.848 174.228 182.187 173.374 177.757 172.321C182.187 171.267 182.848 170.414 183.664 164.693C184.479 170.414 185.14 171.267 189.57 172.321Z" fill="var(--fill-0, white)"/>
<path id="Vector_25" d="M428.607 994.202C424.178 995.255 423.517 996.109 422.701 1001.83C421.886 996.109 421.225 995.255 416.795 994.202C421.225 993.149 421.886 992.295 422.701 986.574C423.517 992.295 424.178 993.149 428.607 994.202Z" fill="var(--fill-0, white)"/>
<path id="Vector_26" d="M11.8125 1318.51C7.38278 1319.56 6.72172 1320.42 5.90625 1326.14C5.09078 1320.42 4.42972 1319.56 0 1318.51C4.42972 1317.46 5.09078 1316.6 5.90625 1310.88C6.72172 1316.6 7.38278 1317.46 11.8125 1318.51Z" fill="var(--fill-0, white)"/>
<path id="Vector_27" d="M795.69 1109.61C791.261 1110.66 790.6 1111.51 789.784 1117.24C788.969 1111.51 788.308 1110.66 783.878 1109.61C788.308 1108.55 788.969 1107.7 789.784 1101.98C790.6 1107.7 791.261 1108.55 795.69 1109.61Z" fill="var(--fill-0, white)"/>
<path id="Vector_28" d="M941.494 1560.6C937.064 1561.65 936.403 1562.51 935.588 1568.23C934.772 1562.51 934.111 1561.65 929.682 1560.6C934.111 1559.55 934.772 1558.69 935.588 1552.97C936.403 1558.69 937.064 1559.55 941.494 1560.6Z" fill="var(--fill-0, white)"/>
<path id="Vector_29" d="M632.886 2178.55C628.456 2179.61 627.795 2180.46 626.979 2186.18C626.164 2180.46 625.503 2179.61 621.073 2178.55C625.503 2177.5 626.164 2176.65 626.979 2170.93C627.795 2176.65 628.456 2177.5 632.886 2178.55Z" fill="var(--fill-0, white)"/>
</g>
<defs>
<clipPath id="clip0_905_1403">
<rect width="1121" height="2801" fill="white"/>
</clipPath>
</defs>
</svg>
