<svg preserveAspectRatio="none" width="100%" height="100%" overflow="visible" style="display: block;" viewBox="0 0 1121 2801" fill="none" xmlns="http://www.w3.org/2000/svg">
<g id="Group 5 1" clip-path="url(#clip0_1116_154)">
<path id="Vector" d="M591.824 476.198C581.859 478.568 580.371 480.488 578.537 493.359C576.702 480.488 575.215 478.568 565.25 476.198C575.215 473.829 576.702 471.908 578.537 459.038C580.371 471.908 581.859 473.829 591.824 476.198Z" fill="url(#paint0_linear_1116_154)"/>
<path id="Vector_2" d="M591.824 476.198C581.859 478.568 580.371 480.488 578.537 493.359C576.702 480.488 575.215 478.568 565.25 476.198C575.215 473.829 576.702 471.908 578.537 459.038C580.371 471.908 581.859 473.829 591.824 476.198Z" fill="url(#paint1_linear_1116_154)"/>
<path id="Vector_3" d="M380.736 1413.34C370.771 1415.71 369.283 1417.63 367.449 1430.5C365.614 1417.63 364.127 1415.71 354.162 1413.34C364.127 1410.97 365.614 1409.05 367.449 1396.18C369.283 1409.05 370.771 1410.97 380.736 1413.34Z" fill="url(#paint2_linear_1116_154)"/>
<path id="Vector_4" d="M380.736 1413.34C370.771 1415.71 369.283 1417.63 367.449 1430.5C365.614 1417.63 364.127 1415.71 354.162 1413.34C364.127 1410.97 365.614 1409.05 367.449 1396.18C369.283 1409.05 370.771 1410.97 380.736 1413.34Z" fill="url(#paint3_linear_1116_154)"/>
<path id="Vector_5" d="M148.074 2195.72C141.105 2197.37 140.065 2198.72 138.781 2207.72C137.498 2198.72 136.458 2197.37 129.489 2195.72C136.458 2194.06 137.498 2192.72 138.781 2183.71C140.065 2192.72 141.105 2194.06 148.074 2195.72Z" fill="url(#paint4_linear_1116_154)"/>
<path id="Vector_6" d="M148.074 2195.72C141.105 2197.37 140.065 2198.72 138.781 2207.72C137.498 2198.72 136.458 2197.37 129.489 2195.72C136.458 2194.06 137.498 2192.72 138.781 2183.71C140.065 2192.72 141.105 2194.06 148.074 2195.72Z" fill="url(#paint5_linear_1116_154)"/>
<path id="Vector_7" d="M731.482 938.93C721.517 941.3 720.03 943.22 718.195 956.091C716.361 943.22 714.873 941.3 704.908 938.93C714.873 936.561 716.361 934.64 718.195 921.77C720.03 934.64 721.517 936.561 731.482 938.93Z" fill="url(#paint6_linear_1116_154)"/>
<path id="Vector_8" d="M731.482 938.93C721.517 941.3 720.03 943.22 718.195 956.091C716.361 943.22 714.873 941.3 704.908 938.93C714.873 936.561 716.361 934.64 718.195 921.77C720.03 934.64 721.517 936.561 731.482 938.93Z" fill="url(#paint7_linear_1116_154)"/>
<path id="Vector_9" d="M524.925 1939.75C517.816 1941.44 516.755 1942.81 515.446 1951.99C514.137 1942.81 513.076 1941.44 505.967 1939.75C513.076 1938.06 514.137 1936.69 515.446 1927.51C516.755 1936.69 517.816 1938.06 524.925 1939.75Z" fill="url(#paint8_linear_1116_154)"/>
<path id="Vector_10" d="M524.925 1939.75C517.816 1941.44 516.755 1942.81 515.446 1951.99C514.137 1942.81 513.076 1941.44 505.967 1939.75C513.076 1938.06 514.137 1936.69 515.446 1927.51C516.755 1936.69 517.816 1938.06 524.925 1939.75Z" fill="url(#paint9_linear_1116_154)"/>
<path id="Vector_11" d="M92.2114 1109.61C82.2462 1111.98 80.7591 1113.9 78.9246 1126.77C77.09 1113.9 75.6029 1111.98 65.6377 1109.61C75.6029 1107.24 77.09 1105.32 78.9246 1092.45C80.7591 1105.32 82.2462 1107.24 92.2114 1109.61Z" fill="url(#paint10_linear_1116_154)"/>
<path id="Vector_12" d="M92.2114 1109.61C82.2462 1111.98 80.7591 1113.9 78.9246 1126.77C77.09 1113.9 75.6029 1111.98 65.6377 1109.61C75.6029 1107.24 77.09 1105.32 78.9246 1092.45C80.7591 1105.32 82.2462 1107.24 92.2114 1109.61Z" fill="url(#paint11_linear_1116_154)"/>
<path id="Vector_13" d="M336.496 2783.1C326.531 2785.47 325.044 2787.39 323.209 2800.26C321.375 2787.39 319.888 2785.47 309.922 2783.1C319.888 2780.73 321.375 2778.81 323.209 2765.94C325.044 2778.81 326.531 2780.73 336.496 2783.1Z" fill="url(#paint12_linear_1116_154)"/>
<path id="Vector_14" d="M336.496 2783.1C326.531 2785.47 325.044 2787.39 323.209 2800.26C321.375 2787.39 319.888 2785.47 309.922 2783.1C319.888 2780.73 321.375 2778.81 323.209 2765.94C325.044 2778.81 326.531 2780.73 336.496 2783.1Z" fill="url(#paint13_linear_1116_154)"/>
<path id="Vector_15" d="M1067.66 1672.75C1057.7 1675.12 1056.21 1677.04 1054.38 1689.91C1052.54 1677.04 1051.06 1675.12 1041.09 1672.75C1051.06 1670.38 1052.54 1668.46 1054.38 1655.59C1056.21 1668.46 1057.7 1670.38 1067.66 1672.75Z" fill="url(#paint14_linear_1116_154)"/>
<path id="Vector_16" d="M1067.66 1672.75C1057.7 1675.12 1056.21 1677.04 1054.38 1689.91C1052.54 1677.04 1051.06 1675.12 1041.09 1672.75C1051.06 1670.38 1052.54 1668.46 1054.38 1655.59C1056.21 1668.46 1057.7 1670.38 1067.66 1672.75Z" fill="url(#paint15_linear_1116_154)"/>
<path id="Vector_17" d="M1094.34 129.555C1084.37 131.925 1082.89 133.846 1081.05 146.716C1079.22 133.846 1077.73 131.925 1067.77 129.555C1077.73 127.186 1079.22 125.265 1081.05 112.395C1082.89 125.265 1084.37 127.186 1094.34 129.555Z" fill="url(#paint16_linear_1116_154)"/>
<path id="Vector_18" d="M1094.34 129.555C1084.37 131.925 1082.89 133.846 1081.05 146.716C1079.22 133.846 1077.73 131.925 1067.77 129.555C1077.73 127.186 1079.22 125.265 1081.05 112.395C1082.89 125.265 1084.37 127.186 1094.34 129.555Z" fill="url(#paint17_linear_1116_154)"/>
<path id="Vector_19" d="M978.185 2473.68C968.22 2476.05 966.733 2477.97 964.898 2490.84C963.064 2477.97 961.577 2476.05 951.611 2473.68C961.577 2471.31 963.064 2469.39 964.898 2456.52C966.733 2469.39 968.22 2471.31 978.185 2473.68Z" fill="url(#paint18_linear_1116_154)"/>
<path id="Vector_20" d="M978.185 2473.68C968.22 2476.05 966.733 2477.97 964.898 2490.84C963.064 2477.97 961.577 2476.05 951.611 2473.68C961.577 2471.31 963.064 2469.39 964.898 2456.52C966.733 2469.39 968.22 2471.31 978.185 2473.68Z" fill="url(#paint19_linear_1116_154)"/>
<path id="Vector_21" d="M1120.91 921.77C1110.95 924.139 1109.46 926.06 1107.63 938.93C1105.79 926.06 1104.31 924.139 1094.34 921.77C1104.31 919.4 1105.79 917.48 1107.63 904.609C1109.46 917.48 1110.95 919.4 1120.91 921.77Z" fill="url(#paint20_linear_1116_154)"/>
<path id="Vector_22" d="M1120.91 921.77C1110.95 924.139 1109.46 926.06 1107.63 938.93C1105.79 926.06 1104.31 924.139 1094.34 921.77C1104.31 919.4 1105.79 917.48 1107.63 904.609C1109.46 917.48 1110.95 919.4 1120.91 921.77Z" fill="url(#paint21_linear_1116_154)"/>
<path id="Vector_23" d="M480.28 104.767C475.85 105.82 475.189 106.674 474.374 112.395C473.558 106.674 472.897 105.82 468.467 104.767C472.897 103.713 473.558 102.86 474.374 97.1384C475.189 102.86 475.85 103.713 480.28 104.767Z" fill="url(#paint22_linear_1116_154)"/>
<path id="Vector_24" d="M480.28 104.767C475.85 105.82 475.189 106.674 474.374 112.395C473.558 106.674 472.897 105.82 468.467 104.767C472.897 103.713 473.558 102.86 474.374 97.1384C475.189 102.86 475.85 103.713 480.28 104.767Z" fill="url(#paint23_linear_1116_154)"/>
<path id="Vector_25" d="M872.21 256.603C865.88 250.97 864.284 250.97 857.954 256.603C862.316 248.428 862.316 246.367 857.954 238.191C864.284 243.825 865.88 243.825 872.21 238.191C867.848 246.367 867.848 248.428 872.21 256.603Z" fill="url(#paint24_linear_1116_154)"/>
<path id="Vector_26" d="M872.21 256.603C865.88 250.97 864.284 250.97 857.954 256.603C862.316 248.428 862.316 246.367 857.954 238.191C864.284 243.825 865.88 243.825 872.21 238.191C867.848 246.367 867.848 248.428 872.21 256.603Z" fill="url(#paint25_linear_1116_154)"/>
<path id="Vector_27" d="M220.174 586.512C213.844 580.878 212.248 580.878 205.918 586.512C210.28 578.336 210.28 576.275 205.918 568.1C212.248 573.733 213.844 573.733 220.174 568.1C215.812 576.275 215.812 578.336 220.174 586.512Z" fill="url(#paint26_linear_1116_154)"/>
<path id="Vector_28" d="M220.174 586.512C213.844 580.878 212.248 580.878 205.918 586.512C210.28 578.336 210.28 576.275 205.918 568.1C212.248 573.733 213.844 573.733 220.174 568.1C215.812 576.275 215.812 578.336 220.174 586.512Z" fill="url(#paint27_linear_1116_154)"/>
<path id="Vector_29" d="M173.915 1212.33C167.584 1206.7 165.989 1206.7 159.659 1212.33C164.021 1204.15 164.021 1202.09 159.659 1193.92C165.989 1199.55 167.584 1199.55 173.915 1193.92C169.553 1202.09 169.553 1204.15 173.915 1212.33Z" fill="url(#paint28_linear_1116_154)"/>
<path id="Vector_30" d="M173.915 1212.33C167.584 1206.7 165.989 1206.7 159.659 1212.33C164.021 1204.15 164.021 1202.09 159.659 1193.92C165.989 1199.55 167.584 1199.55 173.915 1193.92C169.553 1202.09 169.553 1204.15 173.915 1212.33Z" fill="url(#paint29_linear_1116_154)"/>
<path id="Vector_31" d="M970.412 14.7397C969.625 9.2123 968.986 8.38742 964.706 7.36987C968.986 6.35231 969.625 5.52744 970.412 -3.22147e-07C971.2 5.52744 971.839 6.35231 976.119 7.36987C971.839 8.38742 971.2 9.2123 970.412 14.7397Z" fill="url(#paint30_linear_1116_154)"/>
<path id="Vector_32" d="M970.412 14.7397C969.625 9.2123 968.986 8.38742 964.706 7.36987C968.986 6.35231 969.625 5.52744 970.412 -3.22147e-07C971.2 5.52744 971.839 6.35231 976.119 7.36987C971.839 8.38742 971.2 9.2123 970.412 14.7397Z" fill="url(#paint31_linear_1116_154)"/>
<path id="Vector_33" d="M1019.51 1210.49C1018.72 1204.97 1018.08 1204.14 1013.8 1203.12C1018.08 1202.11 1018.72 1201.28 1019.51 1195.75C1020.29 1201.28 1020.93 1202.11 1025.21 1203.12C1020.93 1204.14 1020.29 1204.97 1019.51 1210.49Z" fill="url(#paint32_linear_1116_154)"/>
<path id="Vector_34" d="M1019.51 1210.49C1018.72 1204.97 1018.08 1204.14 1013.8 1203.12C1018.08 1202.11 1018.72 1201.28 1019.51 1195.75C1020.29 1201.28 1020.93 1202.11 1025.21 1203.12C1020.93 1204.14 1020.29 1204.97 1019.51 1210.49Z" fill="url(#paint33_linear_1116_154)"/>
<path id="Vector_35" d="M78.1985 1582.97C77.4107 1577.44 76.772 1576.61 72.4923 1575.6C76.772 1574.58 77.4107 1573.75 78.1985 1568.23C78.9864 1573.75 79.6251 1574.58 83.9048 1575.6C79.6251 1576.61 78.9864 1577.44 78.1985 1582.97Z" fill="url(#paint34_linear_1116_154)"/>
<path id="Vector_36" d="M78.1985 1582.97C77.4107 1577.44 76.772 1576.61 72.4923 1575.6C76.772 1574.58 77.4107 1573.75 78.1985 1568.23C78.9864 1573.75 79.6251 1574.58 83.9048 1575.6C79.6251 1576.61 78.9864 1577.44 78.1985 1582.97Z" fill="url(#paint35_linear_1116_154)"/>
<path id="Vector_37" d="M48.5781 40.5601C42.248 34.9266 40.6524 34.9266 34.3222 40.5601C38.6841 32.3844 38.6841 30.3237 34.3222 22.148C40.6524 27.7815 42.248 27.7815 48.5781 22.148C44.2163 30.3237 44.2163 32.3844 48.5781 40.5601Z" fill="url(#paint36_linear_1116_154)"/>
<path id="Vector_38" d="M48.5781 40.5601C42.248 34.9266 40.6524 34.9266 34.3222 40.5601C38.6841 32.3844 38.6841 30.3237 34.3222 22.148C40.6524 27.7815 42.248 27.7815 48.5781 22.148C44.2163 30.3237 44.2163 32.3844 48.5781 40.5601Z" fill="url(#paint37_linear_1116_154)"/>
<path id="Vector_39" d="M1093.22 1301.68C1086.89 1296.04 1085.29 1296.04 1078.96 1301.68C1083.32 1293.5 1083.32 1291.44 1078.96 1283.27C1085.29 1288.9 1086.89 1288.9 1093.22 1283.27C1088.85 1291.44 1088.85 1293.5 1093.22 1301.68Z" fill="url(#paint38_linear_1116_154)"/>
<path id="Vector_40" d="M1093.22 1301.68C1086.89 1296.04 1085.29 1296.04 1078.96 1301.68C1083.32 1293.5 1083.32 1291.44 1078.96 1283.27C1085.29 1288.9 1086.89 1288.9 1093.22 1283.27C1088.85 1291.44 1088.85 1293.5 1093.22 1301.68Z" fill="url(#paint39_linear_1116_154)"/>
<path id="Vector_41" d="M84.5327 222.24C75.5021 224.387 74.1544 226.128 72.4919 237.791C70.8295 226.128 69.4818 224.387 60.4512 222.24C69.4818 220.093 70.8295 218.352 72.4919 206.689C74.1544 218.352 75.5021 220.093 84.5327 222.24Z" fill="url(#paint40_linear_1116_154)"/>
<path id="Vector_42" d="M84.5327 222.24C75.5021 224.387 74.1544 226.128 72.4919 237.791C70.8295 226.128 69.4818 224.387 60.4512 222.24C69.4818 220.093 70.8295 218.352 72.4919 206.689C74.1544 218.352 75.5021 220.093 84.5327 222.24Z" fill="url(#paint41_linear_1116_154)"/>
<path id="Vector_43" d="M189.57 172.321C185.14 173.374 184.479 174.228 183.664 179.949C182.848 174.228 182.187 173.374 177.757 172.321C182.187 171.267 182.848 170.414 183.664 164.693C184.479 170.414 185.14 171.267 189.57 172.321Z" fill="url(#paint42_linear_1116_154)"/>
<path id="Vector_44" d="M189.57 172.321C185.14 173.374 184.479 174.228 183.664 179.949C182.848 174.228 182.187 173.374 177.757 172.321C182.187 171.267 182.848 170.414 183.664 164.693C184.479 170.414 185.14 171.267 189.57 172.321Z" fill="url(#paint43_linear_1116_154)"/>
<path id="Vector_45" d="M428.607 994.202C424.178 995.255 423.517 996.109 422.701 1001.83C421.886 996.109 421.225 995.255 416.795 994.202C421.225 993.149 421.886 992.295 422.701 986.574C423.517 992.295 424.178 993.149 428.607 994.202Z" fill="url(#paint44_linear_1116_154)"/>
<path id="Vector_46" d="M428.607 994.202C424.178 995.255 423.517 996.109 422.701 1001.83C421.886 996.109 421.225 995.255 416.795 994.202C421.225 993.149 421.886 992.295 422.701 986.574C423.517 992.295 424.178 993.149 428.607 994.202Z" fill="url(#paint45_linear_1116_154)"/>
<path id="Vector_47" d="M11.8125 1318.51C7.38278 1319.56 6.72172 1320.42 5.90625 1326.14C5.09078 1320.42 4.42972 1319.56 0 1318.51C4.42972 1317.46 5.09078 1316.6 5.90625 1310.88C6.72172 1316.6 7.38278 1317.46 11.8125 1318.51Z" fill="url(#paint46_linear_1116_154)"/>
<path id="Vector_48" d="M11.8125 1318.51C7.38278 1319.56 6.72172 1320.42 5.90625 1326.14C5.09078 1320.42 4.42972 1319.56 0 1318.51C4.42972 1317.46 5.09078 1316.6 5.90625 1310.88C6.72172 1316.6 7.38278 1317.46 11.8125 1318.51Z" fill="url(#paint47_linear_1116_154)"/>
</g>
<defs>
<linearGradient id="paint0_linear_1116_154" x1="578.537" y1="459.038" x2="578.537" y2="493.359" gradientUnits="userSpaceOnUse">
<stop stop-color="#74B6FF"/>
<stop offset="1" stop-color="#FFC9EE"/>
</linearGradient>
<linearGradient id="paint1_linear_1116_154" x1="578.537" y1="459.038" x2="578.537" y2="493.359" gradientUnits="userSpaceOnUse">
<stop stop-color="#74B6FF"/>
<stop offset="1" stop-color="#FFC9EE"/>
</linearGradient>
<linearGradient id="paint2_linear_1116_154" x1="367.449" y1="1396.18" x2="367.449" y2="1430.5" gradientUnits="userSpaceOnUse">
<stop stop-color="#74B6FF"/>
<stop offset="1" stop-color="#FFC9EE"/>
</linearGradient>
<linearGradient id="paint3_linear_1116_154" x1="367.449" y1="1396.18" x2="367.449" y2="1430.5" gradientUnits="userSpaceOnUse">
<stop stop-color="#74B6FF"/>
<stop offset="1" stop-color="#FFC9EE"/>
</linearGradient>
<linearGradient id="paint4_linear_1116_154" x1="138.781" y1="2183.71" x2="138.781" y2="2207.72" gradientUnits="userSpaceOnUse">
<stop stop-color="#74B6FF"/>
<stop offset="1" stop-color="#FFC9EE"/>
</linearGradient>
<linearGradient id="paint5_linear_1116_154" x1="138.781" y1="2183.71" x2="138.781" y2="2207.72" gradientUnits="userSpaceOnUse">
<stop stop-color="#74B6FF"/>
<stop offset="1" stop-color="#FFC9EE"/>
</linearGradient>
<linearGradient id="paint6_linear_1116_154" x1="718.195" y1="921.77" x2="718.195" y2="956.091" gradientUnits="userSpaceOnUse">
<stop stop-color="#74B6FF"/>
<stop offset="1" stop-color="#FFC9EE"/>
</linearGradient>
<linearGradient id="paint7_linear_1116_154" x1="718.195" y1="921.77" x2="718.195" y2="956.091" gradientUnits="userSpaceOnUse">
<stop stop-color="#74B6FF"/>
<stop offset="1" stop-color="#FFC9EE"/>
</linearGradient>
<linearGradient id="paint8_linear_1116_154" x1="515.446" y1="1927.51" x2="515.446" y2="1951.99" gradientUnits="userSpaceOnUse">
<stop stop-color="#74B6FF"/>
<stop offset="1" stop-color="#FFC9EE"/>
</linearGradient>
<linearGradient id="paint9_linear_1116_154" x1="515.446" y1="1927.51" x2="515.446" y2="1951.99" gradientUnits="userSpaceOnUse">
<stop stop-color="#74B6FF"/>
<stop offset="1" stop-color="#FFC9EE"/>
</linearGradient>
<linearGradient id="paint10_linear_1116_154" x1="78.9246" y1="1092.45" x2="78.9246" y2="1126.77" gradientUnits="userSpaceOnUse">
<stop stop-color="#74B6FF"/>
<stop offset="1" stop-color="#FFC9EE"/>
</linearGradient>
<linearGradient id="paint11_linear_1116_154" x1="78.9246" y1="1092.45" x2="78.9246" y2="1126.77" gradientUnits="userSpaceOnUse">
<stop stop-color="#74B6FF"/>
<stop offset="1" stop-color="#FFC9EE"/>
</linearGradient>
<linearGradient id="paint12_linear_1116_154" x1="323.209" y1="2765.94" x2="323.209" y2="2800.26" gradientUnits="userSpaceOnUse">
<stop stop-color="#74B6FF"/>
<stop offset="1" stop-color="#FFC9EE"/>
</linearGradient>
<linearGradient id="paint13_linear_1116_154" x1="323.209" y1="2765.94" x2="323.209" y2="2800.26" gradientUnits="userSpaceOnUse">
<stop stop-color="#74B6FF"/>
<stop offset="1" stop-color="#FFC9EE"/>
</linearGradient>
<linearGradient id="paint14_linear_1116_154" x1="1054.38" y1="1655.59" x2="1054.38" y2="1689.91" gradientUnits="userSpaceOnUse">
<stop stop-color="#74B6FF"/>
<stop offset="1" stop-color="#FFC9EE"/>
</linearGradient>
<linearGradient id="paint15_linear_1116_154" x1="1054.38" y1="1655.59" x2="1054.38" y2="1689.91" gradientUnits="userSpaceOnUse">
<stop stop-color="#74B6FF"/>
<stop offset="1" stop-color="#FFC9EE"/>
</linearGradient>
<linearGradient id="paint16_linear_1116_154" x1="1081.05" y1="112.395" x2="1081.05" y2="146.716" gradientUnits="userSpaceOnUse">
<stop stop-color="#74B6FF"/>
<stop offset="1" stop-color="#FFC9EE"/>
</linearGradient>
<linearGradient id="paint17_linear_1116_154" x1="1081.05" y1="112.395" x2="1081.05" y2="146.716" gradientUnits="userSpaceOnUse">
<stop stop-color="#74B6FF"/>
<stop offset="1" stop-color="#FFC9EE"/>
</linearGradient>
<linearGradient id="paint18_linear_1116_154" x1="964.898" y1="2456.52" x2="964.898" y2="2490.84" gradientUnits="userSpaceOnUse">
<stop stop-color="#74B6FF"/>
<stop offset="1" stop-color="#FFC9EE"/>
</linearGradient>
<linearGradient id="paint19_linear_1116_154" x1="964.898" y1="2456.52" x2="964.898" y2="2490.84" gradientUnits="userSpaceOnUse">
<stop stop-color="#74B6FF"/>
<stop offset="1" stop-color="#FFC9EE"/>
</linearGradient>
<linearGradient id="paint20_linear_1116_154" x1="1107.63" y1="904.609" x2="1107.63" y2="938.93" gradientUnits="userSpaceOnUse">
<stop stop-color="#74B6FF"/>
<stop offset="1" stop-color="#FFC9EE"/>
</linearGradient>
<linearGradient id="paint21_linear_1116_154" x1="1107.63" y1="904.609" x2="1107.63" y2="938.93" gradientUnits="userSpaceOnUse">
<stop stop-color="#74B6FF"/>
<stop offset="1" stop-color="#FFC9EE"/>
</linearGradient>
<linearGradient id="paint22_linear_1116_154" x1="474.374" y1="97.1384" x2="474.374" y2="112.395" gradientUnits="userSpaceOnUse">
<stop stop-color="#74B6FF"/>
<stop offset="1" stop-color="#FFC9EE"/>
</linearGradient>
<linearGradient id="paint23_linear_1116_154" x1="474.374" y1="97.1384" x2="474.374" y2="112.395" gradientUnits="userSpaceOnUse">
<stop stop-color="#74B6FF"/>
<stop offset="1" stop-color="#FFC9EE"/>
</linearGradient>
<linearGradient id="paint24_linear_1116_154" x1="872.21" y1="238.191" x2="854.384" y2="251.993" gradientUnits="userSpaceOnUse">
<stop stop-color="#74B6FF"/>
<stop offset="1" stop-color="#FFC9EE"/>
</linearGradient>
<linearGradient id="paint25_linear_1116_154" x1="872.21" y1="238.191" x2="854.384" y2="251.993" gradientUnits="userSpaceOnUse">
<stop stop-color="#74B6FF"/>
<stop offset="1" stop-color="#FFC9EE"/>
</linearGradient>
<linearGradient id="paint26_linear_1116_154" x1="220.174" y1="568.1" x2="202.348" y2="581.901" gradientUnits="userSpaceOnUse">
<stop stop-color="#74B6FF"/>
<stop offset="1" stop-color="#FFC9EE"/>
</linearGradient>
<linearGradient id="paint27_linear_1116_154" x1="220.174" y1="568.1" x2="202.348" y2="581.901" gradientUnits="userSpaceOnUse">
<stop stop-color="#74B6FF"/>
<stop offset="1" stop-color="#FFC9EE"/>
</linearGradient>
<linearGradient id="paint28_linear_1116_154" x1="173.915" y1="1193.92" x2="156.089" y2="1207.72" gradientUnits="userSpaceOnUse">
<stop stop-color="#74B6FF"/>
<stop offset="1" stop-color="#FFC9EE"/>
</linearGradient>
<linearGradient id="paint29_linear_1116_154" x1="173.915" y1="1193.92" x2="156.089" y2="1207.72" gradientUnits="userSpaceOnUse">
<stop stop-color="#74B6FF"/>
<stop offset="1" stop-color="#FFC9EE"/>
</linearGradient>
<linearGradient id="paint30_linear_1116_154" x1="976.119" y1="7.36987" x2="964.706" y2="7.36987" gradientUnits="userSpaceOnUse">
<stop stop-color="#74B6FF"/>
<stop offset="1" stop-color="#FFC9EE"/>
</linearGradient>
<linearGradient id="paint31_linear_1116_154" x1="976.119" y1="7.36987" x2="964.706" y2="7.36987" gradientUnits="userSpaceOnUse">
<stop stop-color="#74B6FF"/>
<stop offset="1" stop-color="#FFC9EE"/>
</linearGradient>
<linearGradient id="paint32_linear_1116_154" x1="1025.21" y1="1203.12" x2="1013.8" y2="1203.12" gradientUnits="userSpaceOnUse">
<stop stop-color="#74B6FF"/>
<stop offset="1" stop-color="#FFC9EE"/>
</linearGradient>
<linearGradient id="paint33_linear_1116_154" x1="1025.21" y1="1203.12" x2="1013.8" y2="1203.12" gradientUnits="userSpaceOnUse">
<stop stop-color="#74B6FF"/>
<stop offset="1" stop-color="#FFC9EE"/>
</linearGradient>
<linearGradient id="paint34_linear_1116_154" x1="83.9048" y1="1575.6" x2="72.4923" y2="1575.6" gradientUnits="userSpaceOnUse">
<stop stop-color="#74B6FF"/>
<stop offset="1" stop-color="#FFC9EE"/>
</linearGradient>
<linearGradient id="paint35_linear_1116_154" x1="83.9048" y1="1575.6" x2="72.4923" y2="1575.6" gradientUnits="userSpaceOnUse">
<stop stop-color="#74B6FF"/>
<stop offset="1" stop-color="#FFC9EE"/>
</linearGradient>
<linearGradient id="paint36_linear_1116_154" x1="48.5781" y1="22.148" x2="30.7526" y2="35.9497" gradientUnits="userSpaceOnUse">
<stop stop-color="#74B6FF"/>
<stop offset="1" stop-color="#FFC9EE"/>
</linearGradient>
<linearGradient id="paint37_linear_1116_154" x1="48.5781" y1="22.148" x2="30.7526" y2="35.9497" gradientUnits="userSpaceOnUse">
<stop stop-color="#74B6FF"/>
<stop offset="1" stop-color="#FFC9EE"/>
</linearGradient>
<linearGradient id="paint38_linear_1116_154" x1="1093.22" y1="1283.27" x2="1075.39" y2="1297.07" gradientUnits="userSpaceOnUse">
<stop stop-color="#74B6FF"/>
<stop offset="1" stop-color="#FFC9EE"/>
</linearGradient>
<linearGradient id="paint39_linear_1116_154" x1="1093.22" y1="1283.27" x2="1075.39" y2="1297.07" gradientUnits="userSpaceOnUse">
<stop stop-color="#74B6FF"/>
<stop offset="1" stop-color="#FFC9EE"/>
</linearGradient>
<linearGradient id="paint40_linear_1116_154" x1="72.4919" y1="206.689" x2="72.4919" y2="237.791" gradientUnits="userSpaceOnUse">
<stop stop-color="#74B6FF"/>
<stop offset="1" stop-color="#FFC9EE"/>
</linearGradient>
<linearGradient id="paint41_linear_1116_154" x1="72.4919" y1="206.689" x2="72.4919" y2="237.791" gradientUnits="userSpaceOnUse">
<stop stop-color="#74B6FF"/>
<stop offset="1" stop-color="#FFC9EE"/>
</linearGradient>
<linearGradient id="paint42_linear_1116_154" x1="183.664" y1="164.693" x2="183.664" y2="179.949" gradientUnits="userSpaceOnUse">
<stop stop-color="#74B6FF"/>
<stop offset="1" stop-color="#FFC9EE"/>
</linearGradient>
<linearGradient id="paint43_linear_1116_154" x1="183.664" y1="164.693" x2="183.664" y2="179.949" gradientUnits="userSpaceOnUse">
<stop stop-color="#74B6FF"/>
<stop offset="1" stop-color="#FFC9EE"/>
</linearGradient>
<linearGradient id="paint44_linear_1116_154" x1="422.701" y1="986.574" x2="422.701" y2="1001.83" gradientUnits="userSpaceOnUse">
<stop stop-color="#74B6FF"/>
<stop offset="1" stop-color="#FFC9EE"/>
</linearGradient>
<linearGradient id="paint45_linear_1116_154" x1="422.701" y1="986.574" x2="422.701" y2="1001.83" gradientUnits="userSpaceOnUse">
<stop stop-color="#74B6FF"/>
<stop offset="1" stop-color="#FFC9EE"/>
</linearGradient>
<linearGradient id="paint46_linear_1116_154" x1="5.90625" y1="1310.88" x2="5.90625" y2="1326.14" gradientUnits="userSpaceOnUse">
<stop stop-color="#74B6FF"/>
<stop offset="1" stop-color="#FFC9EE"/>
</linearGradient>
<linearGradient id="paint47_linear_1116_154" x1="5.90625" y1="1310.88" x2="5.90625" y2="1326.14" gradientUnits="userSpaceOnUse">
<stop stop-color="#74B6FF"/>
<stop offset="1" stop-color="#FFC9EE"/>
</linearGradient>
<clipPath id="clip0_1116_154">
<rect width="1121" height="2801" fill="white"/>
</clipPath>
</defs>
</svg>
