<svg preserveAspectRatio="none" width="100%" height="100%" overflow="visible" style="display: block;" viewBox="0 0 1221 3510" fill="none" xmlns="http://www.w3.org/2000/svg">
<g id="Group 4706 1">
<path id="Vector" d="M152.5 609L153.321 613.987C154.056 618.448 157.552 621.944 162.013 622.679L167 623.5L162.013 624.321C157.552 625.056 154.056 628.552 153.321 633.013L152.5 638L151.679 633.013C150.944 628.552 147.448 625.056 142.987 624.321L138 623.5L142.987 622.679C147.448 621.944 150.944 618.448 151.679 613.987L152.5 609Z" fill="url(#paint0_linear_962_232)"/>
<path id="Vector_2" d="M1101 0L1101.68 4.12733C1102.29 7.81883 1105.18 10.7121 1108.87 11.3202L1113 12L1108.87 12.6798C1105.18 13.2879 1102.29 16.1812 1101.68 19.8727L1101 24L1100.32 19.8727C1099.71 16.1812 1096.82 13.2879 1093.13 12.6798L1089 12L1093.13 11.3202C1096.82 10.7121 1099.71 7.81882 1100.32 4.12733L1101 0Z" fill="url(#paint1_linear_962_232)"/>
<path id="Vector_3" d="M1096.5 605L1096.75 607.236C1096.98 609.235 1098.07 610.802 1099.45 611.132L1101 611.5L1099.45 611.868C1098.07 612.198 1096.98 613.765 1096.75 615.764L1096.5 618L1096.25 615.764C1096.02 613.765 1094.93 612.198 1093.55 611.868L1092 611.5L1093.55 611.132C1094.93 610.802 1096.02 609.235 1096.25 607.236L1096.5 605Z" fill="url(#paint2_linear_962_232)"/>
<path id="Vector_4" d="M1137.5 1275L1137.98 1279.3C1138.41 1283.14 1140.46 1286.16 1143.08 1286.79L1146 1287.5L1143.08 1288.21C1140.46 1288.84 1138.41 1291.86 1137.98 1295.7L1137.5 1300L1137.02 1295.7C1136.59 1291.86 1134.54 1288.84 1131.92 1288.21L1129 1287.5L1131.92 1286.79C1134.54 1286.16 1136.59 1283.14 1137.02 1279.3L1137.5 1275Z" fill="url(#paint3_linear_962_232)"/>
<path id="Vector_5" d="M36.5 861L37.6047 867.707C38.5928 873.706 43.2944 878.407 49.2931 879.395L56 880.5L49.2931 881.605C43.2944 882.593 38.5928 887.294 37.6047 893.293L36.5 900L35.3953 893.293C34.4072 887.294 29.7056 882.593 23.7069 881.605L17 880.5L23.7069 879.395C29.7056 878.407 34.4072 873.706 35.3953 867.707L36.5 861Z" fill="url(#paint4_linear_962_232)"/>
<path id="Vector_6" d="M154 45L154.906 50.5031C155.717 55.4251 159.575 59.2828 164.497 60.0936L170 61L164.497 61.9064C159.575 62.7172 155.717 66.5749 154.906 71.4969L154 77L153.094 71.4969C152.283 66.5749 148.425 62.7172 143.503 61.9064L138 61L143.503 60.0936C148.425 59.2828 152.283 55.4251 153.094 50.5031L154 45Z" fill="url(#paint5_linear_962_232)"/>
<path id="Vector_7" d="M12 319L12.6798 323.127C13.2879 326.819 16.1812 329.712 19.8727 330.32L24 331L19.8727 331.68C16.1812 332.288 13.2879 335.181 12.6798 338.873L12 343L11.3202 338.873C10.7121 335.181 7.81882 332.288 4.12733 331.68L0 331L4.12733 330.32C7.81883 329.712 10.7121 326.819 11.3202 323.127L12 319Z" fill="url(#paint6_linear_962_232)"/>
</g>
<defs>
<linearGradient id="paint0_linear_962_232" x1="146.041" y1="614.668" x2="157.641" y2="631.673" gradientUnits="userSpaceOnUse">
<stop stop-color="#74B6FF"/>
<stop offset="1" stop-color="#FFC9EE"/>
</linearGradient>
<linearGradient id="paint1_linear_962_232" x1="1095.65" y1="4.69091" x2="1105.25" y2="18.7636" gradientUnits="userSpaceOnUse">
<stop stop-color="#74B6FF"/>
<stop offset="1" stop-color="#FFC9EE"/>
</linearGradient>
<linearGradient id="paint2_linear_962_232" x1="1094.5" y1="607.541" x2="1100.08" y2="613.208" gradientUnits="userSpaceOnUse">
<stop stop-color="#74B6FF"/>
<stop offset="1" stop-color="#FFC9EE"/>
</linearGradient>
<linearGradient id="paint3_linear_962_232" x1="1133.71" y1="1279.89" x2="1144.45" y2="1290.59" gradientUnits="userSpaceOnUse">
<stop stop-color="#74B6FF"/>
<stop offset="1" stop-color="#FFC9EE"/>
</linearGradient>
<linearGradient id="paint4_linear_962_232" x1="27.8136" y1="868.623" x2="43.4136" y2="891.491" gradientUnits="userSpaceOnUse">
<stop stop-color="#74B6FF"/>
<stop offset="1" stop-color="#FFC9EE"/>
</linearGradient>
<linearGradient id="paint5_linear_962_232" x1="146.873" y1="51.2545" x2="159.673" y2="70.0182" gradientUnits="userSpaceOnUse">
<stop stop-color="#74B6FF"/>
<stop offset="1" stop-color="#FFC9EE"/>
</linearGradient>
<linearGradient id="paint6_linear_962_232" x1="6.65455" y1="323.691" x2="16.2545" y2="337.764" gradientUnits="userSpaceOnUse">
<stop stop-color="#74B6FF"/>
<stop offset="1" stop-color="#FFC9EE"/>
</linearGradient>
</defs>
</svg>
