<svg preserveAspectRatio="none" width="100%" height="100%" overflow="visible" style="display: block;" viewBox="0 0 277.978 266.825" fill="none" xmlns="http://www.w3.org/2000/svg">
<g id="Vector">
<path d="M136.177 0.170758C141.48 -0.517897 150.351 0.873558 154.593 4.39706C160.703 9.47211 164.199 17.0695 167.873 23.8945C170.548 28.8637 173.956 33.5325 176.314 38.7222C177.301 40.8435 179.25 44.2292 180.428 46.5437C184.12 53.8032 189.559 60.956 195.493 66.6072C197.781 68.746 203.037 69.6517 206.302 70.6857C215.541 73.611 225.027 75.9927 234.585 78.183C247.357 81.11 264.4 82.4667 273.48 93.36C275.857 96.214 277.655 101.379 277.912 105.134C278.995 120.954 266.427 131.065 256.85 141.616C254.657 144.031 252.04 146.77 249.928 149.044C245.245 154.085 241.1 158.797 236.989 164.363C234.769 167.37 231.994 169.055 231.018 173.029C229.967 177.309 229.537 182.428 229.164 186.849C229.246 188.387 229.232 190.532 229.428 192.044C229.928 199.544 230.428 206.044 231.131 212.625C231.23 215.064 231.801 218.063 231.928 220.544C232.031 222.573 232.259 224.522 232.428 226.544C232.443 228.282 232.928 231.544 232.928 233.544C232.928 235.044 233.546 242.15 233.123 245.878C232.356 252.633 230.324 256.931 224.964 261.128C219.96 265.371 213.22 267.588 206.52 266.586C199.651 265.556 191.315 261.026 184.491 258.903C182.449 258.268 178.847 256.208 176.755 255.241C172.46 253.298 168.151 251.383 163.829 249.501C160.028 247.846 156.007 246.537 152.142 245.008C147.992 243.366 144.562 241.219 140.102 240.664C139.008 240.9 137.585 240.78 136.652 241.079C132.419 242.778 125.977 243.418 122.017 245.293C113.874 249.148 105.694 252.981 97.2978 256.333C95.155 257.188 91.4277 258.834 89.4973 259.473C87.5668 260.113 75.4277 264.468 71.4277 265.544C67.4277 266.619 63.6873 266.208 58.4385 264.346C52.3355 262.178 48.9015 258.503 45.7393 252.883C43.2133 248.396 42.9105 243.274 42.738 238.301C42.6288 235.155 43.1607 232.515 43.4277 229.544C43.8067 225.974 44.5305 222.298 44.8908 218.765C45.6458 211.361 46.505 203.974 46.9277 196.544C47.0062 195.165 47.2556 193.498 47.4277 191.544C47.4277 191.544 48.4277 181.044 48.2105 176.87C47.9933 172.697 46.7465 172.033 44.5085 168.506C41.9135 164.416 39.2085 161.762 36.0898 158.137L22.9277 142.044C21.2338 140.111 19.0171 137.414 17.5029 135.822C10.33 128.451 3.3113 122.727 0.629147 112.275C-2.62717 99.587 7.212 85.379 19.6448 82.4107C21.7014 81.9197 24.1735 81.7372 26.4277 81.0437L36.4277 79.0437C38.7657 78.5437 42.9277 77.5437 42.9277 77.5437L44.5303 77.299C44.5303 77.299 54.6385 74.5985 58.3733 73.7712C67.3208 71.7892 77.5028 70.447 84.9663 64.726C89.0388 61.6042 90.8698 55.7047 93.5978 51.306L114.141 18.3528C117.339 13.3146 118.395 10.0255 122.888 5.78003C127.827 1.11343 129.854 1.33011 136.177 0.170758Z" fill="var(--fill-0, white)"/>
<path d="M136.399 1.6543C138.851 1.34068 142.21 1.50061 145.48 2.17383C148.789 2.85507 151.789 4.01741 153.635 5.55078C159.461 10.39 162.799 17.6355 166.552 24.6055C167.914 27.1354 169.468 29.5978 170.931 32.0049C172.407 34.4342 173.809 36.8347 174.948 39.3428L174.953 39.3555C175.469 40.464 176.226 41.88 176.98 43.2744C177.746 44.6898 178.514 46.0888 179.091 47.2236C182.865 54.6445 188.41 61.9327 194.459 67.6934L194.469 67.7031C195.887 69.0297 198.077 69.8698 200.086 70.4932C201.123 70.8149 202.186 71.0996 203.17 71.3623C204.168 71.6287 205.072 71.8702 205.849 72.1162C215.143 75.0591 224.674 77.4513 234.249 79.6455C240.826 81.1527 248.036 82.1667 254.992 84.2227C261.655 86.1919 267.677 89.0241 271.922 93.8477L272.327 94.3203C273.37 95.5717 274.34 97.4065 275.083 99.4268C275.731 101.188 276.176 103.007 276.355 104.579L276.416 105.237C276.925 112.68 274.242 118.82 270.162 124.473C266.021 130.209 260.648 135.2 255.739 140.607C253.552 143.017 250.966 145.723 248.829 148.022L248.828 148.023C244.129 153.083 239.94 157.841 235.782 163.473C235.275 164.16 234.727 164.783 234.149 165.415C233.588 166.03 232.963 166.689 232.392 167.365C231.212 168.761 230.124 170.381 229.562 172.671C228.477 177.088 228.039 182.331 227.669 186.723L227.66 186.826L227.666 186.93C227.738 188.279 227.738 190.569 227.93 192.144H227.931C228.43 199.638 228.931 206.151 229.635 212.749C229.69 214.026 229.864 215.425 230.03 216.755C230.203 218.136 230.37 219.446 230.43 220.62C230.534 222.666 230.765 224.692 230.929 226.636C230.943 227.581 231.074 228.876 231.19 230.089C231.315 231.391 231.428 232.63 231.428 233.544C231.428 234.328 231.588 236.61 231.686 238.938C231.788 241.374 231.83 243.975 231.633 245.709C231.262 248.978 230.595 251.545 229.436 253.77C228.281 255.984 226.589 257.95 224.039 259.947L223.994 259.984C219.288 263.974 212.975 266.035 206.742 265.103H206.743C203.501 264.616 199.846 263.29 196.049 261.763C192.321 260.263 188.426 258.556 184.937 257.471C184.054 257.196 182.751 256.581 181.317 255.857C179.95 255.167 178.46 254.377 177.385 253.88L177.373 253.874C173.072 251.929 168.756 250.011 164.428 248.126C160.625 246.47 156.413 245.085 152.694 243.613C151.692 243.217 150.727 242.787 149.755 242.348C148.792 241.912 147.809 241.461 146.818 241.045C144.824 240.208 142.709 239.477 140.287 239.176L140.034 239.144L139.784 239.198C139.377 239.286 138.888 239.311 138.227 239.351C137.653 239.385 136.871 239.433 136.194 239.65L136.144 239.667L136.094 239.687C134.112 240.482 131.582 241.04 128.896 241.658C126.457 242.22 123.874 242.836 121.786 243.751L121.375 243.938C113.739 247.552 106.107 251.13 98.3047 254.31L96.7412 254.94C94.4853 255.841 90.9048 257.428 89.0254 258.05C86.986 258.725 74.988 263.033 71.0381 264.095C67.661 265.003 64.4513 264.772 59.874 263.253L58.9404 262.933C53.6333 261.048 50.5 257.974 47.6201 253.139L47.0469 252.147L46.834 251.759C44.703 247.721 44.4054 243.095 44.2373 238.249C44.1323 235.222 44.6372 232.846 44.9219 229.678L44.9209 229.677C45.1062 227.939 45.3763 226.171 45.6494 224.365C45.922 222.564 46.1984 220.725 46.3828 218.917C47.1349 211.542 48.0005 204.103 48.4258 196.629C48.4849 195.59 48.6289 194.515 48.7764 193.148L48.9219 191.676C48.9224 191.671 48.923 191.663 48.9238 191.654C48.9258 191.634 48.9289 191.604 48.9326 191.564C48.94 191.486 48.9503 191.369 48.9639 191.221C48.991 190.923 49.0298 190.494 49.0752 189.967C49.166 188.912 49.2844 187.461 49.3965 185.878C49.6182 182.747 49.8231 178.987 49.709 176.793C49.5913 174.531 49.1815 173.091 48.4326 171.725C48.0795 171.08 47.6624 170.475 47.2305 169.856C46.79 169.225 46.3137 168.551 45.7754 167.702C43.1081 163.498 40.2722 160.696 37.2461 157.181L24.0889 141.094L24.0557 141.055C22.4219 139.19 20.1277 136.405 18.5898 134.788L18.584 134.782L18.5781 134.775L17.2148 133.389C10.4468 126.562 4.47956 121.245 2.08203 111.902C0.580067 106.049 2.08135 99.7546 5.50879 94.5195C8.93818 89.2816 14.203 85.2525 19.9932 83.8701C20.9561 83.6402 22.0109 83.483 23.21 83.2822C24.3482 83.0917 25.5824 82.8641 26.7852 82.501L36.7217 80.5146L36.7412 80.5107C37.9257 80.2574 39.5632 79.879 40.8965 79.5664C41.5647 79.4097 42.16 79.2688 42.5879 79.167C42.8019 79.1161 42.9749 79.0753 43.0938 79.0469C43.1458 79.0344 43.1872 79.023 43.2178 79.0156L44.7568 78.7822L44.8379 78.7695L44.917 78.748H44.918H44.9189C44.9201 78.7477 44.9224 78.7467 44.9248 78.7461C44.9296 78.7448 44.9369 78.7427 44.9463 78.7402C44.9654 78.7351 44.994 78.7277 45.0313 78.7178C45.1059 78.6979 45.216 78.6685 45.3574 78.6309C45.6405 78.5556 46.0495 78.4473 46.5518 78.3145C47.5564 78.0487 48.9344 77.6855 50.4287 77.2969C53.4283 76.5169 56.8614 75.642 58.6973 75.2354C63.0769 74.2652 67.9846 73.4079 72.6338 72.0947C77.3194 70.7712 81.9346 68.9395 85.8789 65.916C88.1755 64.1555 89.7743 61.667 91.1055 59.209C92.5039 56.6267 93.5249 54.2683 94.8701 52.0986L94.8711 52.0996L115.414 19.1465L115.413 19.1455C118.766 13.8617 119.609 10.9424 123.919 6.87012C126.299 4.6213 127.864 3.65537 129.512 3.0752C131.269 2.45642 133.125 2.25342 136.399 1.6543Z" stroke="var(--stroke-0, #74B6FF)" stroke-opacity="0.3" stroke-width="3"/>
</g>
</svg>
