<svg preserveAspectRatio="none" width="100%" height="100%" overflow="visible" style="display: block;" viewBox="0 0 283 273" fill="none" xmlns="http://www.w3.org/2000/svg">
<g id="star3 1 [Vectorized]">
<g id="Vector">
<path d="M138.905 3.07227C144.208 2.38362 153.079 3.77507 157.321 7.29857C163.431 12.3736 166.926 19.971 170.6 26.796C173.276 31.7653 176.684 36.434 179.041 41.6237C180.028 43.745 181.978 47.1307 183.155 49.4452C186.848 56.7047 192.287 63.8575 198.221 69.5087C200.508 71.6475 205.764 72.5532 209.03 73.5872C218.269 76.5125 227.755 78.8943 237.312 81.0845C250.085 84.0115 267.127 85.3682 276.207 96.2615C278.585 99.1155 280.383 104.28 280.64 108.036C281.723 123.855 269.155 133.966 259.578 144.517C257.385 146.932 254.768 149.671 252.655 151.945C247.973 156.987 243.827 161.698 239.717 167.265C237.497 170.271 234.721 171.957 233.746 175.93C232.695 180.211 232.264 185.329 231.891 189.751C231.974 191.289 231.96 193.434 232.155 194.945C232.655 202.445 233.155 208.945 233.858 215.527C233.958 217.965 234.529 220.964 234.655 223.445C234.759 225.474 234.986 227.424 235.155 229.445C235.17 231.184 235.655 234.445 235.655 236.445C235.655 237.945 236.274 245.051 235.85 248.779C235.083 255.535 233.052 259.832 227.692 264.03C222.688 268.272 215.948 270.49 209.248 269.487C202.379 268.457 194.043 263.927 187.219 261.805C185.177 261.17 181.575 259.11 179.483 258.142C175.188 256.2 170.879 254.285 166.557 252.402C162.756 250.747 158.735 249.439 154.87 247.909C150.72 246.267 147.29 244.121 142.829 243.566C141.736 243.802 140.313 243.681 139.38 243.98C135.147 245.68 128.704 246.32 124.745 248.195C116.601 252.05 108.421 255.882 100.025 259.235C97.8827 260.09 94.1555 261.736 92.225 262.375C90.2945 263.014 78.1555 267.37 74.1555 268.445C70.1555 269.52 66.415 269.11 61.1662 267.247C55.0632 265.08 51.6293 261.405 48.467 255.785C45.941 251.298 45.6383 246.175 45.4658 241.203C45.3565 238.056 45.8885 235.417 46.1555 232.445C46.5345 228.876 47.2583 225.199 47.6185 221.667C48.3735 214.262 49.2327 206.875 49.6555 199.445C49.734 198.066 49.9833 196.4 50.1555 194.445C50.1555 194.445 51.1555 183.945 50.9383 179.772C50.721 175.599 49.4743 174.935 47.2363 171.407C44.6413 167.317 41.9363 164.664 38.8175 161.039L25.6555 144.945C23.9615 143.012 21.7448 140.316 20.2306 138.723C13.0577 131.352 6.03902 125.628 3.35688 115.177C0.100562 102.488 9.93973 88.2805 22.3726 85.3122C24.4292 84.8212 26.9012 84.6387 29.1555 83.9452L39.1555 81.9452C41.4934 81.4452 45.6555 80.4452 45.6555 80.4452L47.258 80.2005C47.258 80.2005 57.3663 77.5 61.101 76.6727C70.0485 74.6907 80.2305 73.3485 87.694 67.6275C91.7665 64.5057 93.5975 58.6063 96.3255 54.2075L116.869 21.2544C120.067 16.2161 121.123 12.927 125.616 8.68155C130.555 4.01495 132.582 4.23162 138.905 3.07227Z" fill="var(--fill-0, white)"/>
<path d="M139.127 4.55581C141.579 4.2422 144.938 4.40212 148.208 5.07534C151.517 5.75658 154.516 6.91892 156.362 8.4523C162.188 13.2915 165.527 20.537 169.279 27.507C170.642 30.0369 172.196 32.4994 173.658 34.9064C175.135 37.3357 176.537 39.7362 177.676 42.2443L177.681 42.257C178.197 43.3655 178.954 44.7815 179.708 46.1759C180.474 47.5913 181.241 48.9903 181.819 50.1251C185.593 57.546 191.138 64.8342 197.187 70.5949L197.196 70.6046C198.615 71.9312 200.805 72.7713 202.814 73.3947C203.851 73.7164 204.914 74.0011 205.898 74.2638C206.895 74.5303 207.8 74.7718 208.576 75.0177C217.871 77.9606 227.402 80.3528 236.977 82.547C243.554 84.0542 250.764 85.0682 257.72 87.1242C264.382 89.0935 270.405 91.9256 274.65 96.7492L275.055 97.2218C276.097 98.4733 277.068 100.308 277.811 102.328C278.458 104.089 278.904 105.909 279.083 107.481L279.144 108.139C279.653 115.582 276.97 121.722 272.89 127.374C268.749 133.111 263.375 138.102 258.467 143.509C256.28 145.918 253.693 148.625 251.557 150.924L251.556 150.925C246.857 155.985 242.668 160.743 238.51 166.374C238.002 167.062 237.455 167.685 236.877 168.317C236.315 168.931 235.691 169.59 235.119 170.267C233.94 171.662 232.852 173.282 232.289 175.572C231.205 179.989 230.767 185.232 230.397 189.624L230.388 189.728L230.394 189.831C230.466 191.181 230.465 193.471 230.657 195.045H230.658C231.158 202.539 231.659 209.052 232.362 215.651C232.418 216.927 232.591 218.326 232.758 219.656C232.931 221.038 233.097 222.348 233.157 223.522C233.262 225.568 233.493 227.593 233.656 229.537C233.671 230.483 233.802 231.777 233.918 232.99C234.043 234.293 234.155 235.532 234.155 236.445C234.155 237.229 234.316 239.511 234.413 241.839C234.515 244.276 234.557 246.877 234.361 248.611C233.989 251.879 233.323 254.446 232.163 256.671C231.009 258.886 229.317 260.852 226.767 262.849L226.722 262.886C222.016 266.876 215.703 268.937 209.47 268.004H209.471C206.229 267.518 202.573 266.191 198.777 264.664C195.049 263.165 191.153 261.457 187.664 260.372C186.781 260.098 185.478 259.482 184.045 258.759C182.677 258.069 181.188 257.279 180.112 256.781L180.101 256.776C175.799 254.83 171.484 252.913 167.155 251.027C163.352 249.371 159.14 247.986 155.422 246.515C154.42 246.118 153.455 245.689 152.483 245.249C151.52 244.814 150.537 244.362 149.546 243.946C147.552 243.11 145.437 242.379 143.015 242.077L142.762 242.045L142.512 242.1C142.105 242.188 141.615 242.212 140.954 242.252C140.381 242.287 139.599 242.335 138.922 242.552L138.871 242.569L138.821 242.588C136.84 243.384 134.309 243.941 131.623 244.56C129.185 245.121 126.601 245.738 124.514 246.652L124.103 246.839C116.467 250.454 108.834 254.032 101.032 257.211L99.4689 257.842C97.2131 258.742 93.6326 260.329 91.7531 260.951C89.7137 261.627 77.7157 265.934 73.7658 266.996C70.3887 267.904 67.1791 267.673 62.6018 266.154L61.6682 265.834C56.361 263.949 53.2277 260.876 50.3478 256.04L49.7746 255.049L49.5617 254.66C47.4307 250.623 47.1331 245.996 46.965 241.151C46.86 238.124 47.3649 235.748 47.6496 232.579L47.6486 232.578C47.8339 230.841 48.104 229.072 48.3771 227.267C48.6497 225.465 48.9261 223.627 49.1105 221.819C49.8626 214.443 50.7283 207.005 51.1535 199.53C51.2127 198.492 51.3567 197.416 51.5041 196.05L51.6496 194.577C51.6501 194.572 51.6507 194.565 51.6516 194.556C51.6535 194.535 51.6567 194.505 51.6603 194.466C51.6677 194.387 51.678 194.271 51.6916 194.122C51.7187 193.825 51.7575 193.396 51.8029 192.868C51.8937 191.814 52.0121 190.362 52.1242 188.779C52.3459 185.649 52.5509 181.889 52.4367 179.694C52.319 177.433 51.9092 175.992 51.1603 174.626C50.8072 173.982 50.3901 173.377 49.9582 172.758C49.5178 172.127 49.0414 171.452 48.5031 170.604C45.8359 166.4 42.9999 163.597 39.9738 160.082L26.8166 143.995L26.7834 143.956C25.1496 142.092 22.8554 139.307 21.3176 137.69L21.3117 137.684L21.3059 137.677L19.9426 136.29C13.1745 129.464 7.20729 124.146 4.80976 114.804C3.30779 108.951 4.80908 102.656 8.23652 97.421C11.6659 92.1831 16.9308 88.154 22.7209 86.7716C23.6839 86.5417 24.7386 86.3845 25.9377 86.1837C27.0759 85.9932 28.3101 85.7657 29.5129 85.4025L39.4494 83.4162L39.4689 83.4123C40.6535 83.1589 42.2909 82.7805 43.6242 82.4679C44.2924 82.3112 44.8877 82.1704 45.3156 82.0685C45.5296 82.0176 45.7026 81.9768 45.8215 81.9484C45.8735 81.9359 45.9149 81.9245 45.9455 81.9171L47.4846 81.6837L47.5656 81.671L47.6447 81.6496H47.6457H47.6467C47.6479 81.6492 47.6501 81.6483 47.6525 81.6476C47.6573 81.6463 47.6646 81.6443 47.674 81.6418C47.6931 81.6366 47.7217 81.6292 47.759 81.6193C47.8337 81.5994 47.9437 81.57 48.0851 81.5324C48.3683 81.4571 48.7772 81.3488 49.2795 81.216C50.2841 80.9502 51.6621 80.587 53.1564 80.1984C56.1561 79.4184 59.5891 78.5435 61.425 78.1369C65.8046 77.1667 70.7123 76.3094 75.3615 74.9962C80.0472 73.6727 84.6623 71.841 88.6066 68.8175C90.9032 67.057 92.502 64.5685 93.8332 62.1105C95.2316 59.5282 96.2526 57.1699 97.5978 55.0001L97.5988 55.0011L118.142 22.048L118.141 22.047C121.493 16.7632 122.337 13.844 126.647 9.77163C129.027 7.52282 130.592 6.55689 132.239 5.97671C133.997 5.35793 135.852 5.15494 139.127 4.55581Z" stroke="var(--stroke-0, #74B6FF)" stroke-opacity="0.3" stroke-width="3"/>
</g>
</g>
</svg>
