<svg preserveAspectRatio="none" width="100%" height="100%" overflow="visible" style="display: block;" viewBox="0 0 1146 1874" fill="none" xmlns="http://www.w3.org/2000/svg">
<g id="Group 4703 1" clip-path="url(#clip0_962_329)">
<path id="Vector" d="M1052.5 663L1053.21 667.299C1053.84 671.145 1056.86 674.158 1060.7 674.792L1065 675.5L1060.7 676.208C1056.86 676.842 1053.84 679.855 1053.21 683.701L1052.5 688L1051.79 683.701C1051.16 679.855 1048.14 676.842 1044.3 676.208L1040 675.5L1044.3 674.792C1048.14 674.158 1051.16 671.145 1051.79 667.299L1052.5 663Z" fill="url(#paint0_linear_962_329)"/>
<path id="Vector_2" d="M152.5 564L153.321 568.987C154.056 573.448 157.552 576.944 162.013 577.679L167 578.5L162.013 579.321C157.552 580.056 154.056 583.552 153.321 588.013L152.5 593L151.679 588.013C150.944 583.552 147.448 580.056 142.987 579.321L138 578.5L142.987 577.679C147.448 576.944 150.944 573.448 151.679 568.987L152.5 564Z" fill="url(#paint1_linear_962_329)"/>
<path id="Vector_3" d="M1098.5 560L1098.87 562.236C1099.2 564.235 1100.76 565.802 1102.76 566.132L1105 566.5L1102.76 566.868C1100.76 567.198 1099.2 568.765 1098.87 570.764L1098.5 573L1098.13 570.764C1097.8 568.765 1096.24 567.198 1094.24 566.868L1092 566.5L1094.24 566.132C1096.24 565.802 1097.8 564.235 1098.13 562.236L1098.5 560Z" fill="url(#paint2_linear_962_329)"/>
<path id="Vector_4" d="M1137.5 1230L1137.98 1232.92C1138.41 1235.54 1140.46 1237.59 1143.08 1238.02L1146 1238.5L1143.08 1238.98C1140.46 1239.41 1138.41 1241.46 1137.98 1244.08L1137.5 1247L1137.02 1244.08C1136.59 1241.46 1134.54 1239.41 1131.92 1238.98L1129 1238.5L1131.92 1238.02C1134.54 1237.59 1136.59 1235.54 1137.02 1232.92L1137.5 1230Z" fill="url(#paint3_linear_962_329)"/>
<path id="Vector_5" d="M186 1836L187.076 1842.53C188.039 1848.38 192.62 1852.96 198.465 1853.92L205 1855L198.465 1856.08C192.62 1857.04 188.039 1861.62 187.076 1867.47L186 1874L184.924 1867.47C183.961 1861.62 179.38 1857.04 173.535 1856.08L167 1855L173.535 1853.92C179.38 1852.96 183.961 1848.38 184.924 1842.53L186 1836Z" fill="url(#paint4_linear_962_329)"/>
<path id="Vector_6" d="M81 1829L81.7365 1833.47C82.3952 1837.47 85.5296 1840.6 89.5287 1841.26L94 1842L89.5287 1842.74C85.5296 1843.4 82.3952 1846.53 81.7365 1850.53L81 1855L80.2635 1850.53C79.6048 1846.53 76.4704 1843.4 72.4713 1842.74L68 1842L72.4713 1841.26C76.4704 1840.6 79.6048 1837.47 80.2635 1833.47L81 1829Z" fill="url(#paint5_linear_962_329)"/>
<path id="Vector_7" d="M121.5 91L121.982 93.9235C122.412 96.5383 124.462 98.5877 127.076 99.0184L130 99.5L127.076 99.9816C124.462 100.412 122.412 102.462 121.982 105.076L121.5 108L121.018 105.076C120.588 102.462 118.538 100.412 115.924 99.9816L113 99.5L115.924 99.0184C118.538 98.5877 120.588 96.5383 121.018 93.9235L121.5 91Z" fill="url(#paint6_linear_962_329)"/>
<path id="Vector_8" d="M133 0L133.68 4.12733C134.288 7.81883 137.181 10.7121 140.873 11.3202L145 12L140.873 12.6798C137.181 13.2879 134.288 16.1812 133.68 19.8727L133 24L132.32 19.8727C131.712 16.1812 128.819 13.2879 125.127 12.6798L121 12L125.127 11.3202C128.819 10.7121 131.712 7.81882 132.32 4.12733L133 0Z" fill="url(#paint7_linear_962_329)"/>
<path id="Vector_9" d="M12 274L12.6798 278.127C13.2879 281.819 16.1812 284.712 19.8727 285.32L24 286L19.8727 286.68C16.1812 287.288 13.2879 290.181 12.6798 293.873L12 298L11.3202 293.873C10.7121 290.181 7.81882 287.288 4.12733 286.68L0 286L4.12733 285.32C7.81883 284.712 10.7121 281.819 11.3202 278.127L12 274Z" fill="url(#paint8_linear_962_329)"/>
</g>
<defs>
<linearGradient id="paint0_linear_962_329" x1="1046.93" y1="667.886" x2="1056.93" y2="682.545" gradientUnits="userSpaceOnUse">
<stop stop-color="#74B6FF"/>
<stop offset="1" stop-color="#FFC9EE"/>
</linearGradient>
<linearGradient id="paint1_linear_962_329" x1="146.041" y1="569.668" x2="157.641" y2="586.673" gradientUnits="userSpaceOnUse">
<stop stop-color="#74B6FF"/>
<stop offset="1" stop-color="#FFC9EE"/>
</linearGradient>
<linearGradient id="paint2_linear_962_329" x1="1095.6" y1="562.541" x2="1100.8" y2="570.164" gradientUnits="userSpaceOnUse">
<stop stop-color="#74B6FF"/>
<stop offset="1" stop-color="#FFC9EE"/>
</linearGradient>
<linearGradient id="paint3_linear_962_329" x1="1133.71" y1="1233.32" x2="1140.51" y2="1243.29" gradientUnits="userSpaceOnUse">
<stop stop-color="#74B6FF"/>
<stop offset="1" stop-color="#FFC9EE"/>
</linearGradient>
<linearGradient id="paint4_linear_962_329" x1="177.536" y1="1843.43" x2="192.736" y2="1865.71" gradientUnits="userSpaceOnUse">
<stop stop-color="#74B6FF"/>
<stop offset="1" stop-color="#FFC9EE"/>
</linearGradient>
<linearGradient id="paint5_linear_962_329" x1="75.2091" y1="1834.08" x2="85.6091" y2="1849.33" gradientUnits="userSpaceOnUse">
<stop stop-color="#74B6FF"/>
<stop offset="1" stop-color="#FFC9EE"/>
</linearGradient>
<linearGradient id="paint6_linear_962_329" x1="117.714" y1="94.3227" x2="124.514" y2="104.291" gradientUnits="userSpaceOnUse">
<stop stop-color="#74B6FF"/>
<stop offset="1" stop-color="#FFC9EE"/>
</linearGradient>
<linearGradient id="paint7_linear_962_329" x1="127.655" y1="4.69091" x2="137.255" y2="18.7636" gradientUnits="userSpaceOnUse">
<stop stop-color="#74B6FF"/>
<stop offset="1" stop-color="#FFC9EE"/>
</linearGradient>
<linearGradient id="paint8_linear_962_329" x1="6.65455" y1="278.691" x2="16.2545" y2="292.764" gradientUnits="userSpaceOnUse">
<stop stop-color="#74B6FF"/>
<stop offset="1" stop-color="#FFC9EE"/>
</linearGradient>
<clipPath id="clip0_962_329">
<rect width="1146" height="1874" fill="white"/>
</clipPath>
</defs>
</svg>
