<svg preserveAspectRatio="none" width="100%" height="100%" overflow="visible" style="display: block;" viewBox="0 0 1169 1044" fill="none" xmlns="http://www.w3.org/2000/svg">
<g id="Group 4701 1" clip-path="url(#clip0_962_163)">
<path id="Vector" d="M60.5 375L62.9644 389.962C65.1686 403.343 75.6568 413.831 89.0384 416.036L104 418.5L89.0384 420.964C75.6568 423.169 65.1686 433.657 62.9644 447.038L60.5 462L58.0356 447.038C55.8314 433.657 45.3432 423.169 31.9616 420.964L17 418.5L31.9616 416.036C45.3432 413.831 55.8314 403.343 58.0356 389.962L60.5 375Z" fill="url(#paint0_linear_962_163)"/>
<path id="Vector_2" d="M1145 562L1146.36 570.255C1147.58 577.638 1153.36 583.424 1160.75 584.64L1169 586L1160.75 587.36C1153.36 588.576 1147.58 594.362 1146.36 601.745L1145 610L1143.64 601.745C1142.42 594.362 1136.64 588.576 1129.25 587.36L1121 586L1129.25 584.64C1136.64 583.424 1142.42 577.638 1143.64 570.255L1145 562Z" fill="url(#paint1_linear_962_163)"/>
<path id="Vector_3" d="M1099 1010L1099.96 1015.85C1100.82 1021.08 1104.92 1025.18 1110.15 1026.04L1116 1027L1110.15 1027.96C1104.92 1028.82 1100.82 1032.92 1099.96 1038.15L1099 1044L1098.04 1038.15C1097.18 1032.92 1093.08 1028.82 1087.85 1027.96L1082 1027L1087.85 1026.04C1093.08 1025.18 1097.18 1021.08 1098.04 1015.85L1099 1010Z" fill="url(#paint2_linear_962_163)"/>
<path id="Vector_4" d="M228 67L229.36 75.2547C230.576 82.6377 236.362 88.4242 243.745 89.6403L252 91L243.745 92.3597C236.362 93.5758 230.576 99.3624 229.36 106.745L228 115L226.64 106.745C225.424 99.3624 219.638 93.5758 212.255 92.3597L204 91L212.255 89.6403C219.638 88.4242 225.424 82.6377 226.64 75.2547L228 67Z" fill="url(#paint3_linear_962_163)"/>
<path id="Vector_5" d="M36.5 816L37.6047 822.707C38.5928 828.706 43.2944 833.407 49.2931 834.395L56 835.5L49.2931 836.605C43.2944 837.593 38.5928 842.294 37.6047 848.293L36.5 855L35.3953 848.293C34.4072 842.294 29.7056 837.593 23.7069 836.605L17 835.5L23.7069 834.395C29.7056 833.407 34.4072 828.706 35.3953 822.707L36.5 816Z" fill="url(#paint4_linear_962_163)"/>
<path id="Vector_6" d="M154 0L154.906 5.50311C155.717 10.4251 159.575 14.2828 164.497 15.0936L170 16L164.497 16.9064C159.575 17.7172 155.717 21.5749 154.906 26.4969L154 32L153.094 26.4969C152.283 21.5749 148.425 17.7172 143.503 16.9064L138 16L143.503 15.0936C148.425 14.2828 152.283 10.4251 153.094 5.50311L154 0Z" fill="url(#paint5_linear_962_163)"/>
<path id="Vector_7" d="M12 274L12.6798 278.127C13.2879 281.819 16.1812 284.712 19.8727 285.32L24 286L19.8727 286.68C16.1812 287.288 13.2879 290.181 12.6798 293.873L12 298L11.3202 293.873C10.7121 290.181 7.81882 287.288 4.12733 286.68L0 286L4.12733 285.32C7.81883 284.712 10.7121 281.819 11.3202 278.127L12 274Z" fill="url(#paint6_linear_962_163)"/>
</g>
<defs>
<linearGradient id="paint0_linear_962_163" x1="41.1227" y1="392.005" x2="75.9227" y2="443.018" gradientUnits="userSpaceOnUse">
<stop stop-color="#74B6FF"/>
<stop offset="1" stop-color="#FFC9EE"/>
</linearGradient>
<linearGradient id="paint1_linear_962_163" x1="1134.31" y1="571.382" x2="1153.51" y2="599.527" gradientUnits="userSpaceOnUse">
<stop stop-color="#74B6FF"/>
<stop offset="1" stop-color="#FFC9EE"/>
</linearGradient>
<linearGradient id="paint2_linear_962_163" x1="1091.43" y1="1016.65" x2="1105.03" y2="1036.58" gradientUnits="userSpaceOnUse">
<stop stop-color="#74B6FF"/>
<stop offset="1" stop-color="#FFC9EE"/>
</linearGradient>
<linearGradient id="paint3_linear_962_163" x1="217.309" y1="76.3818" x2="236.509" y2="104.527" gradientUnits="userSpaceOnUse">
<stop stop-color="#74B6FF"/>
<stop offset="1" stop-color="#FFC9EE"/>
</linearGradient>
<linearGradient id="paint4_linear_962_163" x1="27.8136" y1="823.623" x2="43.4136" y2="846.491" gradientUnits="userSpaceOnUse">
<stop stop-color="#74B6FF"/>
<stop offset="1" stop-color="#FFC9EE"/>
</linearGradient>
<linearGradient id="paint5_linear_962_163" x1="146.873" y1="6.25454" x2="159.673" y2="25.0182" gradientUnits="userSpaceOnUse">
<stop stop-color="#74B6FF"/>
<stop offset="1" stop-color="#FFC9EE"/>
</linearGradient>
<linearGradient id="paint6_linear_962_163" x1="6.65455" y1="278.691" x2="16.2545" y2="292.764" gradientUnits="userSpaceOnUse">
<stop stop-color="#74B6FF"/>
<stop offset="1" stop-color="#FFC9EE"/>
</linearGradient>
<clipPath id="clip0_962_163">
<rect width="1169" height="1044" fill="white"/>
</clipPath>
</defs>
</svg>
